<svg xmlns="http://www.w3.org/2000/svg" version="1.1" xmlns:xlink="http://www.w3.org/1999/xlink" xmlns:svgjs="http://svgjs.dev/svgjs" width="1000" height="750" viewBox="0 0 1000 750"><rect width="1000" height="750" fill="#000000"></rect><g transform="matrix(0.6245989304812835,0,0,0.6245989304812835,187.7049489427091,83.23643737512671)"><svg viewBox="0 0 264 247" data-background-color="#77d4fc" preserveAspectRatio="xMidYMid meet" height="935" width="1000" xmlns="http://www.w3.org/2000/svg" xmlns:xlink="http://www.w3.org/1999/xlink"><defs></defs><g id="tight-bounds" transform="matrix(1,0,0,1,-0.0018657483190054336,-0.10000005420599223)"><svg viewBox="0 0 264.003731496638 247.2" height="247.2" width="264.003731496638"><g><svg viewBox="0 0 395.52 370.34531082468845" height="247.2" width="264.003731496638"><g transform="matrix(1,0,0,1,0,258.3205436183049)"><svg viewBox="0 0 395.52 112.02476720638359" height="112.02476720638359" width="395.52"><g><svg viewBox="0 0 395.52 112.02476720638359" height="112.02476720638359" width="395.52"><g><svg viewBox="0 0 395.52 60.420806486025164" height="60.420806486025164" width="395.52"><g transform="matrix(1,0,0,1,0,0)"><svg width="395.52" viewBox="-0.20000000298023224 -35.400001525878906 234.3300018310547 35.80000305175781" height="60.420806486025164" data-palette-color="#000000"><path d="M30.1-31.4L28.35-27.45Q23.25-30.35 17.45-30.9L17.45-30.9 17.45 0 12.5 0 12.5-30.9Q6.65-30.35 1.55-27.45L1.55-27.45-0.2-31.4Q6.5-35.4 14.9-35.4L14.9-35.4Q23.4-35.4 30.1-31.4L30.1-31.4ZM64 0L58.55 0 51-10.75Q49.6-10.65 48.8-10.65L48.8-10.65 40.15-10.65 40.15 0 35.15 0 35.15-35 48.8-35Q55.6-35 59.5-31.75 63.4-28.5 63.4-22.8L63.4-22.8Q63.4-18.75 61.4-15.9 59.4-13.05 55.7-11.75L55.7-11.75 64 0ZM48.65-14.9Q53.4-14.9 55.9-16.95 58.4-19 58.4-22.8L58.4-22.8Q58.4-26.6 55.9-28.63 53.4-30.65 48.65-30.65L48.65-30.65 40.15-30.65 40.15-14.9 48.65-14.9ZM86.2-35.4Q93.2-35.4 97.25-31.33 101.3-27.25 101.3-19.65L101.3-19.65 101.3 0 96.3 0 96.3-9.65 76.09-9.65 76.09 0 71.2 0 71.2-19.65Q71.2-27.25 75.25-31.33 79.3-35.4 86.2-35.4L86.2-35.4ZM76.09-14L96.3-14 96.3-20.1Q96.3-25.45 93.62-28.2 90.95-30.95 86.2-30.95L86.2-30.95Q81.45-30.95 78.77-28.2 76.09-25.45 76.09-20.1L76.09-20.1 76.09-14ZM135.89-35L140.89-35 125.54 0 120.59 0 105.19-35 110.59-35 123.19-6.25 135.89-35ZM169.34-7.55L171.04-3.65Q168.79-1.75 165.14-0.68 161.49 0.4 157.19 0.4L157.19 0.4Q152.39 0.4 149.04-0.88 145.69-2.15 143.99-4.4 142.29-6.65 142.29-9.6L142.29-9.6Q142.29-12.6 144.02-14.78 145.74-16.95 148.49-17.9L148.49-17.9Q146.29-18.9 145.04-20.93 143.79-22.95 143.79-25.6L143.79-25.6Q143.79-28.35 145.37-30.55 146.94-32.75 150.14-34.08 153.34-35.4 157.94-35.4L157.94-35.4Q161.19-35.4 164.27-34.7 167.34-34 169.59-32.7L169.59-32.7 168.14-28.7Q163.64-31.1 158.14-31.1L158.14-31.1Q153.59-31.1 151.19-29.48 148.79-27.85 148.79-25.25L148.79-25.25Q148.79-22.65 150.64-21.25 152.49-19.85 155.94-19.85L155.94-19.85 164.94-19.85 164.94-15.55 155.74-15.55Q151.79-15.55 149.54-14.15 147.29-12.75 147.29-9.95L147.29-9.95Q147.29-7.1 149.84-5.5 152.39-3.9 157.44-3.9L157.44-3.9Q160.94-3.9 164.12-4.88 167.29-5.85 169.34-7.55L169.34-7.55ZM177.19 0L177.19-35 182.19-35 182.19-4.35 201.14-4.35 201.14 0 177.19 0ZM234.13 0L228.38 0 217.88-14.45 207.53 0 201.78 0 214.94-17.95 202.58-35 208.28-35 218.08-21.55 227.78-35 233.23-35 220.88-18.1 234.13 0Z" opacity="1" transform="matrix(1,0,0,1,0,0)" fill="#ffffff" class="undefined-text-0" data-fill-palette-color="primary" id="text-0"></path></svg></g></svg></g><g transform="matrix(1,0,0,1,0,74.68470879802004)"><svg viewBox="0 0 395.52 37.340058408363554" height="37.340058408363554" width="395.52"><g transform="matrix(1,0,0,1,0,0)"><svg width="395.52" viewBox="-0.20000000298023224 -34.41999816894531 55.33000183105469 35.07999801635742" height="37.340058408363554" data-palette-color="#000000"><path d="M13.92-33.45L13.48-33.45Q10.55-33.45 10.55-31.2L10.55-31.2Q10.55-30.79 10.71-30.32 10.86-29.86 10.99-29.35L10.99-29.35 20.34-6.84Q20.46-6.59 20.73-6.59 21-6.59 21.17-6.86L21.17-6.86 26.56-19.56 21.8-31.05Q21.36-32.15 18.14-33.15L18.14-33.15Q17.19-33.45 16.91-33.45 16.63-33.45 16.63-33.64L16.63-33.64 16.63-34.23Q16.63-34.42 16.82-34.42L16.82-34.42 39.18-34.42Q39.38-34.42 39.38-34.23L39.38-34.23 39.38-33.64Q39.38-33.45 39.18-33.45L39.18-33.45 38.28-33.45Q35.94-33.45 34.72-31.15L34.72-31.15Q34.3-30.37 33.86-29.32L33.86-29.32 30.69-21.88 36.94-6.84Q37.06-6.59 37.33-6.59 37.6-6.59 37.77-6.86L37.77-6.86 48.1-31.15Q48.39-31.84 48.39-32.37L48.39-32.37Q48.39-33.45 45.58-33.45L45.58-33.45 44.07-33.45Q43.87-33.45 43.87-33.64L43.87-33.64 43.87-34.23Q43.87-34.42 44.07-34.42L44.07-34.42 54.93-34.42Q55.13-34.42 55.13-34.23L55.13-34.23 55.13-33.64Q55.13-33.45 54.93-33.45L54.93-33.45 53.78-33.45Q52.71-33.45 52.16-32.7 51.61-31.96 50.61-29.66L50.61-29.66 38.06-0.2Q37.79 0.39 37.5 0.52 37.21 0.66 36.65 0.66L36.65 0.66 35.5 0.66Q34.91 0.66 34.72 0.12L34.72 0.12 28.13-15.84 21.46-0.2Q21.19 0.39 20.9 0.52 20.61 0.66 20.04 0.66L20.04 0.66 18.9 0.66Q18.31 0.66 18.14 0.1L18.14 0.1 5.2-31.05Q4.81-32.01 2.78-32.73 0.76-33.45 0.28-33.45-0.2-33.45-0.2-33.64L-0.2-33.64-0.2-34.23Q-0.2-34.42 0-34.42L0-34.42 13.92-34.42Q14.11-34.42 14.11-34.23L14.11-34.23 14.11-33.64Q14.11-33.45 13.92-33.45L13.92-33.45ZM31.79-32.3L31.79-32.3Q31.79-33.33 29.69-33.42L29.69-33.42Q27.56-33.3 27.25-31.93L27.25-31.93Q27.15-31.59 27.15-31.19 27.15-30.79 27.31-30.32 27.47-29.86 27.59-29.35L27.59-29.35 29.13-25.61 31.49-31.15Q31.79-31.84 31.79-32.3Z" opacity="1" transform="matrix(1,0,0,1,0,0)" fill="#ffffff" class="undefined-text-1" data-fill-palette-color="secondary" id="text-1"></path></svg></g></svg></g></svg></g></svg></g><g transform="matrix(1,0,0,1,82.86363050284243,0)"><svg viewBox="0 0 229.79273899431513 229.79273899431513" height="229.79273899431513" width="229.79273899431513"><g><svg></svg></g><g id="icon-0"><svg viewBox="0 0 229.79273899431513 229.79273899431513" height="229.79273899431513" width="229.79273899431513"><g><path d="M0 114.896c0-63.456 51.441-114.896 114.896-114.896 63.456 0 114.896 51.441 114.897 114.896 0 63.456-51.441 114.896-114.897 114.897-63.456 0-114.896-51.441-114.896-114.897zM114.896 224.344c60.446 0 109.448-49.001 109.448-109.448 0-60.446-49.001-109.448-109.448-109.447-60.446 0-109.448 49.001-109.447 109.447 0 60.446 49.001 109.448 109.447 109.448z" data-fill-palette-color="accent" fill="#ffffff" stroke="transparent"></path><ellipse rx="113.747405802186" ry="113.747405802186" cx="114.89636949715756" cy="114.89636949715756" fill="#ffffff" stroke="transparent" stroke-width="0" fill-opacity="1" data-fill-palette-color="accent"></ellipse></g><g transform="matrix(1,0,0,1,52.46485732958172,46.1472120850145)"><svg viewBox="0 0 124.86302433515169 137.49831482428613" height="137.49831482428613" width="124.86302433515169"><g><svg xmlns="http://www.w3.org/2000/svg" xmlns:xlink="http://www.w3.org/1999/xlink" version="1.1" x="0" y="0" viewBox="10.467002868652344 6.752997875213623 78.53299713134766 86.4800033569336" enable-background="new 0 0 100 100" xml:space="preserve" height="137.49831482428613" width="124.86302433515169" class="icon-x-0" data-fill-palette-color="quaternary" id="x-0"><path d="M61.086 59.727c-8.793 8.47-17.764 15.794-25.466 20.772-9.896 6.397-13.499 6.298-14.231 6.177-0.079-0.525-0.125-2.521 2.252-7.208-1.712-1.523-3.29-3.194-4.713-4.993-4.568 8.178-5.299 13.708-2.227 16.823 1.27 1.289 2.961 1.935 5.09 1.935 3.858 0 9.155-2.121 15.996-6.386 8.381-5.225 18.212-13.156 27.886-22.483l2.691 5.851c0.428-5.652 2.867-12.995 5.377-18.361-5.402 2.432-12.779 4.766-18.438 5.112L61.086 59.727z" fill="#000000" data-fill-palette-color="quaternary"></path><path d="M71.344 17.36c-1.787 0.867-4.048 2.124-6.878 3.952-6.874 4.444-14.911 10.9-22.859 18.348l10.507 5.017-8.379 0.514c-5.756 0.352-13.121 2.873-17.679 4.924l-5.344 2.405 2.483-5.308c2.117-4.526 4.744-11.852 5.179-17.604l0.633-8.373 4.929 10.717c8.648-8.128 17.398-15.129 24.978-19.987-2.946-0.706-6.018-1.09-9.181-1.09-21.686 0-39.266 17.58-39.266 39.266 0 13.487 6.802 25.383 17.16 32.452 1.777-0.866 4.017-2.113 6.812-3.92 6.875-4.444 14.912-10.9 22.86-18.348l-10.508-5.018 8.379-0.513c5.756-0.353 13.121-2.874 17.679-4.925l5.344-2.406-2.483 5.308c-2.117 4.525-4.743 11.852-5.179 17.604l-0.633 8.373L64.97 68.034c-8.72 8.193-17.541 15.241-25.165 20.104 3.171 0.826 6.498 1.269 9.929 1.269C71.42 89.407 89 71.827 89 50.142 89 36.441 81.979 24.386 71.344 17.36z" fill="#000000" data-fill-palette-color="quaternary"></path><path d="M37.82 40.26c8.794-8.47 17.765-15.794 25.467-20.773 9.896-6.397 13.498-6.297 14.23-6.177 0.079 0.525 0.125 2.522-2.252 7.208 1.713 1.524 3.29 3.195 4.714 4.994 4.567-8.178 5.299-13.708 2.227-16.824-1.27-1.289-2.961-1.935-5.09-1.935-3.858 0-9.155 2.121-15.996 6.386-8.382 5.225-18.212 13.156-27.887 22.483l-2.691-5.851c-0.427 5.651-2.867 12.995-5.377 18.361 5.403-2.432 12.78-4.766 18.438-5.112L37.82 40.26z" fill="#000000" data-fill-palette-color="quaternary"></path></svg></g></svg></g></svg></g></svg></g><g></g></svg></g></svg><rect width="264.003731496638" height="247.2" fill="none" stroke="none" visibility="hidden"></rect></g></svg></g></svg>